PathFileType	4	(X/Y/Z)	D:\TRACE\spotREDO_2-26-24\spot_justBody_Motion_1_3-platform.trc
DataRate	CameraRate	NumFrames	NumMarkers	Units	OrigDataRate	OrigDataStartFrame	OrigNumFrames
100.00	100.00	      48	5	mm	100.00	2626	      7000
Frame#	Time	Left_Front			Right_Front			Left_Aft			Right_Aft			Post			
		X1	Y1	Z1	X2	Y2	Z2	X3	Y3	Z3	X4	Y4	Z4	X5	Y5	Z5	

2626	26.250	-738.15570	-26.54210	-581.02222	676.61145	-14.72339	-496.71371	-809.55237	27.76718	636.86285	760.52496	34.76828	639.90656	-26.98956	584.75153	-1010.53210	
2627	26.260	-737.73865	-26.35875	-580.96875	677.20923	-14.79073	-496.50543	-809.10339	27.74515	636.67554	760.98572	34.91354	639.98737	-27.15899	584.73572	-1010.98102	
2628	26.270	-736.99103	-26.22869	-580.89532	677.88300	-14.72168	-496.65454	-808.39667	27.99435	636.80005	761.70874	34.84507	639.98712	-27.45533	584.85150	-1010.77972	
2629	26.280	-736.47711	-26.24014	-581.13904	678.20490	-14.59578	-496.67511	-807.99402	27.90753	636.81555	762.95654	35.31431	640.15369	-26.94240	585.00354	-1010.63116	
2630	26.290	-735.76636	-26.28814	-581.19049	678.68475	-14.51969	-496.55466	-807.48645	27.80747	636.83881	762.92566	34.73832	640.05353	-26.14883	585.08698	-1010.53394	
2631	26.300	-735.24872	-26.27676	-580.88385	679.44299	-14.58315	-496.50812	-806.91534	27.68465	636.85968	763.50494	34.50586	640.09241	-25.31501	585.24579	-1010.25214	
2632	26.310	-734.80072	-26.31182	-580.86005	680.14020	-14.72214	-496.50070	-806.13062	27.57321	636.88287	764.28973	34.60339	640.14465	-24.94303	585.37976	-1010.13983	
2633	26.320	-734.10107	-26.05314	-580.81543	680.70233	-14.55293	-496.40402	-805.49512	27.53323	637.00708	764.85291	34.56026	640.08752	-24.99383	585.88422	-1010.30939	
2634	26.330	-733.32080	-25.92640	-580.85663	681.22913	-14.38953	-496.35464	-804.74579	27.26192	637.16852	765.51965	34.38173	640.33661	-24.45750	586.03308	-1010.02661	
2635	26.340	-732.76007	-25.81974	-580.82526	681.76306	-14.22626	-496.32834	-804.41931	27.18929	637.15662	766.05328	34.08525	640.24695	-23.73090	586.36584	-1009.70245	
2636	26.350	-732.05389	-25.66279	-580.71613	682.77820	-14.11674	-496.24078	-803.77576	27.16208	637.19904	766.72266	34.16939	640.37054	-22.82892	586.46442	-1009.53503	
2637	26.360	-731.52734	-25.45856	-580.68329	683.26105	-14.04508	-496.18509	-802.95941	27.00414	637.10016	767.26526	33.96671	640.59351	-21.92817	586.67480	-1009.44373	
2638	26.370	-730.97229	-25.41213	-580.76306	683.80023	-13.96775	-496.31522	-802.45813	26.73708	637.13171	767.81012	33.81255	640.66333	-21.02270	586.79712	-1009.36932	
2639	26.380	-730.03656	-25.30736	-580.67944	684.60553	-13.72781	-496.16446	-801.74213	26.99821	637.52032	768.55914	33.66320	640.61700	-20.54899	587.05255	-1009.51477	
2640	26.390	-729.26837	-25.18981	-580.60425	685.51990	-13.48302	-496.18253	-800.87225	26.57621	637.47534	769.28839	33.60863	640.68945	-19.68392	587.35327	-1009.21698	
2641	26.400	-728.78870	-25.03933	-580.65118	686.11926	-13.44660	-496.09109	-800.10901	26.41755	637.45911	769.95142	33.38151	640.69727	-19.04546	587.50970	-1008.80530	
2642	26.410	-727.82275	-24.93805	-580.67810	686.54535	-13.25715	-496.19467	-799.32452	26.31879	637.45337	770.47900	33.31786	640.64783	-18.16759	587.50812	-1008.46106	
2643	26.420	-727.41229	-24.84073	-580.78174	687.26392	-13.36884	-496.29254	-798.83728	26.16532	637.47137	771.23529	33.13686	640.77655	-17.58200	587.78101	-1008.24603	
2644	26.430	-726.55597	-24.77150	-580.56354	688.14478	-13.27574	-496.14743	-798.10242	26.08285	637.50757	772.21216	32.97239	640.80463	-17.03359	588.13611	-1008.51263	
2645	26.440	-725.75641	-24.60219	-580.48260	688.87860	-13.07180	-496.02985	-797.35034	25.92909	637.52448	772.69531	32.99042	640.83636	-16.22638	588.40582	-1008.23187	
2646	26.450	-724.89465	-24.31042	-580.35138	689.78711	-12.75237	-495.94373	-796.59760	25.92806	637.57031	774.22333	32.74667	640.94989	-15.58219	588.56824	-1008.09735	
2647	26.460	-724.25995	-24.16703	-580.36255	690.49585	-12.70845	-495.94940	-795.63055	25.74043	637.71027	774.76984	32.63511	640.95746	-14.38978	589.06750	-1007.71295	
2648	26.470	-723.57050	-24.02001	-580.38348	691.19543	-12.68457	-495.80423	-794.88147	25.26388	637.71332	775.33032	32.43431	640.99872	-13.60581	589.53625	-1007.38232	
2649	26.480	-722.69330	-23.73374	-580.48395	692.14612	-12.41855	-495.86584	-794.29395	25.37653	637.80780	775.93616	32.32589	641.14160	-13.14377	589.73914	-1007.63330	
2650	26.490	-721.94751	-23.56197	-580.44861	692.81146	-12.18875	-495.80417	-793.49390	24.89101	637.69910	776.98547	31.87871	641.30835	-12.53301	589.97974	-1007.41864	
2651	26.500	-721.19189	-23.27622	-580.31592	693.57941	-11.83788	-495.72650	-792.78729	24.79869	637.86249	777.57281	31.83518	641.31311	-11.35532	590.40601	-1007.04169	
2652	26.510	-720.31244	-23.09852	-580.21045	694.38910	-11.64631	-495.72653	-791.98309	24.62173	637.88080	778.47095	31.70153	641.28479	-10.38971	590.61230	-1006.35547	
2653	26.520	-719.44720	-22.91011	-580.01538	695.35504	-11.55123	-495.64044	-790.88489	24.24129	638.16229	779.28009	31.35119	641.29919	-9.74868	590.99249	-1006.33514	
2654	26.530	-718.62286	-22.84414	-580.18695	696.01941	-11.51340	-495.66144	-790.16754	24.02368	638.07446	780.07526	31.07915	641.30017	-9.03985	591.47998	-1006.05145	
2655	26.540	-717.77142	-22.57782	-580.02948	696.87189	-11.11868	-495.74149	-789.37152	24.12219	638.14893	780.72260	30.93672	641.34192	-8.17592	591.84949	-1005.54077	
2656	26.550	-717.04407	-22.32219	-580.06403	697.70392	-10.77722	-495.69547	-788.36963	23.67646	638.15460	781.87805	30.62088	641.45990	-7.59920	592.17261	-1005.36798	
2657	26.560	-716.12134	-22.02180	-579.90472	698.53845	-10.66883	-495.67630	-787.58856	23.49493	638.19714	782.26599	30.57741	641.45441	-6.49025	592.57385	-1004.99719	
2658	26.570	-715.27307	-21.86368	-579.96722	699.47607	-10.63190	-495.57111	-786.61847	23.39404	638.35278	783.55365	30.28438	641.59174	-5.76336	592.97675	-1005.08643	
2659	26.580	-714.18060	-21.58502	-579.87152	700.19897	-10.42475	-495.43542	-785.81970	23.01391	638.37817	784.33606	30.14047	641.69751	-4.80199	593.29962	-1004.82025	
2660	26.590	-713.54169	-21.41634	-579.86676	701.32953	-10.20651	-495.52832	-785.15369	22.82789	638.32635	785.11847	29.97908	641.93982	-3.96359	593.69867	-1004.77533	
2661	26.600	-712.67310	-21.08952	-579.73193	702.20416	-9.90356	-495.20166	-784.01447	22.44323	638.44849	786.26013	29.55882	641.91791	-3.22025	594.30170	-1004.56750	
2662	26.610	-711.92126	-20.68253	-579.76105	702.86035	-9.69110	-495.29553	-783.04333	22.14459	638.88379	787.11255	29.38761	641.98901	-2.10120	594.62970	-1004.07068	
2663	26.620	-710.82495	-20.50390	-579.64600	704.17633	-9.54182	-494.98444	-782.23773	21.82364	638.91925	788.07794	29.26153	641.97797	-1.16624	595.06647	-1003.63757	
2664	26.630	-709.92688	-20.23741	-579.57483	704.99219	-9.24981	-494.99600	-781.33020	21.71833	638.95209	788.96179	28.95804	642.15851	-0.22248	595.37488	-1003.17517	
2665	26.640	-709.08411	-19.95184	-579.52826	705.78601	-9.07116	-495.00201	-780.60657	21.49497	638.92896	789.79193	28.51143	642.27051	0.69264	595.89508	-1002.92053	
2666	26.650	-708.15790	-19.72715	-579.31464	706.56970	-8.97522	-494.99768	-779.57825	21.05099	638.94495	790.59607	28.29218	642.30359	1.64044	596.59088	-1002.29327	
2667	26.660	-706.98242	-19.62828	-579.44519	707.56152	-8.67317	-494.79205	-778.58124	20.78831	638.89655	791.49945	28.09592	642.33246	2.41994	597.03021	-1001.81726	
2668	26.670	-706.22455	-19.09416	-579.25983	708.60278	-8.18445	-494.77182	-777.62457	20.55405	638.96326	792.31012	27.81467	642.36731	3.03571	597.62872	-1001.42694	
2669	26.680	-705.23132	-18.75394	-579.28296	709.42535	-7.84909	-494.80466	-776.86511	20.39483	639.00836	793.50476	27.63503	642.46619	4.15322	598.02374	-1001.00452	
2670	26.690	-704.41681	-18.30812	-579.18817	710.38342	-7.64563	-494.67896	-775.86798	19.87922	639.18860	794.48047	27.33663	642.69775	4.85690	598.49109	-1000.62018	
2671	26.700	-703.54401	-18.06534	-579.19183	711.32971	-7.45069	-494.68280	-774.69873	19.52146	639.46625	795.26355	26.84258	642.75586	5.37525	599.18677	-1000.48334	
2672	26.710	-702.67419	-17.90963	-579.01721	712.17432	-7.04491	-494.52579	-773.92810	19.31171	639.57184	796.17126	26.56909	642.83673	6.27561	599.64862	-1000.35968	
2673	26.720	-701.55365	-17.51810	-578.93536	713.00098	-6.77893	-494.63010	-773.14648	19.09275	639.62994	797.20239	26.33595	642.85645	7.90091	599.98273	-999.88275	
